# Tiled2Unity generated file. Do not modify by hand.
# Wavefront file for 'Level_1_mesh_0002.obj'

# Vertices (Count = 616)
v -5.76 -2.08 0
v -5.92 -2.08 0
v -5.92 -1.92 0
v -5.76 -1.92 0
v -5.92 -2.08 0
v -6.08 -2.08 0
v -6.08 -1.92 0
v -5.92 -1.92 0
v -5.12 -2.24 0
v -5.28 -2.24 0
v -5.28 -2.08 0
v -5.12 -2.08 0
v -5.44 -2.24 0
v -5.6 -2.24 0
v -5.6 -2.08 0
v -5.44 -2.08 0
v -5.6 -2.24 0
v -5.76 -2.24 0
v -5.76 -2.08 0
v -5.6 -2.08 0
v -5.76 -2.24 0
v -5.92 -2.24 0
v -5.92 -2.08 0
v -5.76 -2.08 0
v -5.92 -2.24 0
v -6.08 -2.24 0
v -6.08 -2.08 0
v -5.92 -2.08 0
v -5.44 -3.2 0
v -5.6 -3.2 0
v -5.6 -3.04 0
v -5.44 -3.04 0
v -5.44 -3.36 0
v -5.6 -3.36 0
v -5.6 -3.2 0
v -5.44 -3.2 0
v -5.6 -3.36 0
v -5.76 -3.36 0
v -5.76 -3.2 0
v -5.6 -3.2 0
v -5.6 -3.52 0
v -5.76 -3.52 0
v -5.76 -3.36 0
v -5.6 -3.36 0
v -5.76 -3.52 0
v -5.92 -3.52 0
v -5.92 -3.36 0
v -5.76 -3.36 0
v -5.76 -3.68 0
v -5.92 -3.68 0
v -5.92 -3.52 0
v -5.76 -3.52 0
v -5.92 -3.68 0
v -6.08 -3.68 0
v -6.08 -3.52 0
v -5.92 -3.52 0
v -6.08 -3.68 0
v -6.24 -3.68 0
v -6.24 -3.52 0
v -6.08 -3.52 0
v -6.24 -3.68 0
v -6.4 -3.68 0
v -6.4 -3.52 0
v -6.24 -3.52 0
v -6.4 -3.68 0
v -6.56 -3.68 0
v -6.56 -3.52 0
v -6.4 -3.52 0
v -6.56 -3.68 0
v -6.72 -3.68 0
v -6.72 -3.52 0
v -6.56 -3.52 0
v -6.72 -3.68 0
v -6.88 -3.68 0
v -6.88 -3.52 0
v -6.72 -3.52 0
v -6.88 -3.68 0
v -7.04 -3.68 0
v -7.04 -3.52 0
v -6.88 -3.52 0
v -7.04 -3.68 0
v -7.2 -3.68 0
v -7.2 -3.52 0
v -7.04 -3.52 0
v -7.2 -3.68 0
v -7.36 -3.68 0
v -7.36 -3.52 0
v -7.2 -3.52 0
v -7.36 -3.68 0
v -7.52 -3.68 0
v -7.52 -3.52 0
v -7.36 -3.52 0
v -7.52 -3.68 0
v -7.68 -3.68 0
v -7.68 -3.52 0
v -7.52 -3.52 0
v -7.68 -3.68 0
v -7.84 -3.68 0
v -7.84 -3.52 0
v -7.68 -3.52 0
v -7.84 -3.68 0
v -8 -3.68 0
v -8 -3.52 0
v -7.84 -3.52 0
v -8 -3.68 0
v -8.16 -3.68 0
v -8.16 -3.52 0
v -8 -3.52 0
v -8.16 -3.68 0
v -8.32 -3.68 0
v -8.32 -3.52 0
v -8.16 -3.52 0
v -8.32 -3.68 0
v -8.48 -3.68 0
v -8.48 -3.52 0
v -8.32 -3.52 0
v -8.48 -3.68 0
v -8.639999 -3.68 0
v -8.639999 -3.52 0
v -8.48 -3.52 0
v -8.639999 -3.68 0
v -8.8 -3.68 0
v -8.8 -3.52 0
v -8.639999 -3.52 0
v -8.8 -3.68 0
v -8.96 -3.68 0
v -8.96 -3.52 0
v -8.8 -3.52 0
v -8.96 -3.68 0
v -9.12 -3.68 0
v -9.12 -3.52 0
v -8.96 -3.52 0
v -9.12 -3.68 0
v -9.28 -3.68 0
v -9.28 -3.52 0
v -9.12 -3.52 0
v -9.28 -3.68 0
v -9.44 -3.68 0
v -9.44 -3.52 0
v -9.28 -3.52 0
v -9.44 -3.68 0
v -9.599999 -3.68 0
v -9.599999 -3.52 0
v -9.44 -3.52 0
v -9.92 -3.84 0
v -10.08 -3.84 0
v -10.08 -3.68 0
v -9.92 -3.68 0
v -9.599999 -4.16 0
v -9.76 -4.16 0
v -9.76 -4 0
v -9.599999 -4 0
v -9.76 -4.64 0
v -9.92 -4.64 0
v -9.92 -4.48 0
v -9.76 -4.48 0
v -9.92 -4.64 0
v -10.08 -4.64 0
v -10.08 -4.48 0
v -9.92 -4.48 0
v -7.52 -5.12 0
v -7.68 -5.12 0
v -7.68 -4.96 0
v -7.52 -4.96 0
v -7.68 -5.12 0
v -7.84 -5.12 0
v -7.84 -4.96 0
v -7.68 -4.96 0
v -7.84 -5.12 0
v -8 -5.12 0
v -8 -4.96 0
v -7.84 -4.96 0
v -8 -5.12 0
v -8.16 -5.12 0
v -8.16 -4.96 0
v -8 -4.96 0
v -8.16 -5.12 0
v -8.32 -5.12 0
v -8.32 -4.96 0
v -8.16 -4.96 0
v -8.32 -5.12 0
v -8.48 -5.12 0
v -8.48 -4.96 0
v -8.32 -4.96 0
v -8.48 -5.12 0
v -8.639999 -5.12 0
v -8.639999 -4.96 0
v -8.48 -4.96 0
v -8.639999 -5.12 0
v -8.8 -5.12 0
v -8.8 -4.96 0
v -8.639999 -4.96 0
v -8.8 -5.12 0
v -8.96 -5.12 0
v -8.96 -4.96 0
v -8.8 -4.96 0
v -8.96 -5.12 0
v -9.12 -5.12 0
v -9.12 -4.96 0
v -8.96 -4.96 0
v -9.12 -5.12 0
v -9.28 -5.12 0
v -9.28 -4.96 0
v -9.12 -4.96 0
v -9.28 -5.12 0
v -9.44 -5.12 0
v -9.44 -4.96 0
v -9.28 -4.96 0
v -9.44 -5.12 0
v -9.599999 -5.12 0
v -9.599999 -4.96 0
v -9.44 -4.96 0
v -9.92 -5.12 0
v -10.08 -5.12 0
v -10.08 -4.96 0
v -9.92 -4.96 0
v -7.36 -5.28 0
v -7.52 -5.28 0
v -7.52 -5.12 0
v -7.36 -5.12 0
v -7.52 -5.28 0
v -7.68 -5.28 0
v -7.68 -5.12 0
v -7.52 -5.12 0
v -7.2 -5.44 0
v -7.36 -5.44 0
v -7.36 -5.28 0
v -7.2 -5.28 0
v -7.36 -5.44 0
v -7.52 -5.44 0
v -7.52 -5.28 0
v -7.36 -5.28 0
v -4.8 -5.6 0
v -4.96 -5.6 0
v -4.96 -5.44 0
v -4.8 -5.44 0
v -4.96 -5.6 0
v -5.12 -5.6 0
v -5.12 -5.44 0
v -4.96 -5.44 0
v -5.12 -5.6 0
v -5.28 -5.6 0
v -5.28 -5.44 0
v -5.12 -5.44 0
v -5.44 -5.6 0
v -5.6 -5.6 0
v -5.6 -5.44 0
v -5.44 -5.44 0
v -5.6 -5.6 0
v -5.76 -5.6 0
v -5.76 -5.44 0
v -5.6 -5.44 0
v -5.76 -5.6 0
v -5.92 -5.6 0
v -5.92 -5.44 0
v -5.76 -5.44 0
v -5.92 -5.6 0
v -6.08 -5.6 0
v -6.08 -5.44 0
v -5.92 -5.44 0
v -6.08 -5.6 0
v -6.24 -5.6 0
v -6.24 -5.44 0
v -6.08 -5.44 0
v -6.24 -5.6 0
v -6.4 -5.6 0
v -6.4 -5.44 0
v -6.24 -5.44 0
v -6.4 -5.6 0
v -6.56 -5.6 0
v -6.56 -5.44 0
v -6.4 -5.44 0
v -6.56 -5.6 0
v -6.72 -5.6 0
v -6.72 -5.44 0
v -6.56 -5.44 0
v -6.72 -5.6 0
v -6.88 -5.6 0
v -6.88 -5.44 0
v -6.72 -5.44 0
v -6.88 -5.6 0
v -7.04 -5.6 0
v -7.04 -5.44 0
v -6.88 -5.44 0
v -7.04 -5.6 0
v -7.2 -5.6 0
v -7.2 -5.44 0
v -7.04 -5.44 0
v -7.2 -5.6 0
v -7.36 -5.6 0
v -7.36 -5.44 0
v -7.2 -5.44 0
v -5.92 -6.4 0
v -6.08 -6.4 0
v -6.08 -6.24 0
v -5.92 -6.24 0
v -8 -6.4 0
v -8.16 -6.4 0
v -8.16 -6.24 0
v -8 -6.24 0
v -8.16 -6.4 0
v -8.32 -6.4 0
v -8.32 -6.24 0
v -8.16 -6.24 0
v -8.32 -6.4 0
v -8.48 -6.4 0
v -8.48 -6.24 0
v -8.32 -6.24 0
v -8.48 -6.4 0
v -8.639999 -6.4 0
v -8.639999 -6.24 0
v -8.48 -6.24 0
v -8.639999 -6.4 0
v -8.8 -6.4 0
v -8.8 -6.24 0
v -8.639999 -6.24 0
v -8.8 -6.4 0
v -8.96 -6.4 0
v -8.96 -6.24 0
v -8.8 -6.24 0
v -8.96 -6.4 0
v -9.12 -6.4 0
v -9.12 -6.24 0
v -8.96 -6.24 0
v -9.12 -6.4 0
v -9.28 -6.4 0
v -9.28 -6.24 0
v -9.12 -6.24 0
v -9.28 -6.4 0
v -9.44 -6.4 0
v -9.44 -6.24 0
v -9.28 -6.24 0
v -9.44 -6.4 0
v -9.599999 -6.4 0
v -9.599999 -6.24 0
v -9.44 -6.24 0
v -9.599999 -6.4 0
v -9.76 -6.4 0
v -9.76 -6.24 0
v -9.599999 -6.24 0
v -9.76 -6.4 0
v -9.92 -6.4 0
v -9.92 -6.24 0
v -9.76 -6.24 0
v -9.92 -6.4 0
v -10.08 -6.4 0
v -10.08 -6.24 0
v -9.92 -6.24 0
v -5.92 -6.56 0
v -6.08 -6.56 0
v -6.08 -6.4 0
v -5.92 -6.4 0
v -6.08 -6.56 0
v -6.24 -6.56 0
v -6.24 -6.4 0
v -6.08 -6.4 0
v -4.96 -6.72 0
v -5.12 -6.72 0
v -5.12 -6.56 0
v -4.96 -6.56 0
v -5.12 -6.72 0
v -5.28 -6.72 0
v -5.28 -6.56 0
v -5.12 -6.56 0
v -5.28 -6.72 0
v -5.44 -6.72 0
v -5.44 -6.56 0
v -5.28 -6.56 0
v -5.44 -6.72 0
v -5.6 -6.72 0
v -5.6 -6.56 0
v -5.44 -6.56 0
v -5.6 -6.72 0
v -5.76 -6.72 0
v -5.76 -6.56 0
v -5.6 -6.56 0
v -5.76 -6.72 0
v -5.92 -6.72 0
v -5.92 -6.56 0
v -5.76 -6.56 0
v -5.6 -6.88 0
v -5.76 -6.88 0
v -5.76 -6.72 0
v -5.6 -6.72 0
v -5.76 -6.88 0
v -5.92 -6.88 0
v -5.92 -6.72 0
v -5.76 -6.72 0
v -5.92 -6.88 0
v -6.08 -6.88 0
v -6.08 -6.72 0
v -5.92 -6.72 0
v -6.08 -6.88 0
v -6.24 -6.88 0
v -6.24 -6.72 0
v -6.08 -6.72 0
v -6.24 -6.88 0
v -6.4 -6.88 0
v -6.4 -6.72 0
v -6.24 -6.72 0
v -5.92 -7.04 0
v -6.08 -7.04 0
v -6.08 -6.88 0
v -5.92 -6.88 0
v -6.08 -7.04 0
v -6.24 -7.04 0
v -6.24 -6.88 0
v -6.08 -6.88 0
v -6.24 -7.04 0
v -6.4 -7.04 0
v -6.4 -6.88 0
v -6.24 -6.88 0
v -6.4 -7.04 0
v -6.56 -7.04 0
v -6.56 -6.88 0
v -6.4 -6.88 0
v -6.56 -7.04 0
v -6.72 -7.04 0
v -6.72 -6.88 0
v -6.56 -6.88 0
v -6.72 -7.04 0
v -6.88 -7.04 0
v -6.88 -6.88 0
v -6.72 -6.88 0
v -6.88 -7.04 0
v -7.04 -7.04 0
v -7.04 -6.88 0
v -6.88 -6.88 0
v -7.04 -7.04 0
v -7.2 -7.04 0
v -7.2 -6.88 0
v -7.04 -6.88 0
v -7.2 -7.04 0
v -7.36 -7.04 0
v -7.36 -6.88 0
v -7.2 -6.88 0
v -7.36 -7.04 0
v -7.52 -7.04 0
v -7.52 -6.88 0
v -7.36 -6.88 0
v -7.52 -7.04 0
v -7.68 -7.04 0
v -7.68 -6.88 0
v -7.52 -6.88 0
v -7.68 -7.04 0
v -7.84 -7.04 0
v -7.84 -6.88 0
v -7.68 -6.88 0
v -7.84 -7.04 0
v -8 -7.04 0
v -8 -6.88 0
v -7.84 -6.88 0
v -6.72 -7.2 0
v -6.88 -7.2 0
v -6.88 -7.04 0
v -6.72 -7.04 0
v -6.88 -7.2 0
v -7.04 -7.2 0
v -7.04 -7.04 0
v -6.88 -7.04 0
v -6.88 -7.36 0
v -7.04 -7.36 0
v -7.04 -7.2 0
v -6.88 -7.2 0
v -7.04 -7.36 0
v -7.2 -7.36 0
v -7.2 -7.2 0
v -7.04 -7.2 0
v -7.2 -7.36 0
v -7.36 -7.36 0
v -7.36 -7.2 0
v -7.2 -7.2 0
v -7.2 -7.52 0
v -7.36 -7.52 0
v -7.36 -7.36 0
v -7.2 -7.36 0
v -7.36 -7.52 0
v -7.52 -7.52 0
v -7.52 -7.36 0
v -7.36 -7.36 0
v -7.36 -7.68 0
v -7.52 -7.68 0
v -7.52 -7.52 0
v -7.36 -7.52 0
v -7.52 -7.68 0
v -7.68 -7.68 0
v -7.68 -7.52 0
v -7.52 -7.52 0
v -7.68 -7.68 0
v -7.84 -7.68 0
v -7.84 -7.52 0
v -7.68 -7.52 0
v -5.76 -8 0
v -5.92 -8 0
v -5.92 -7.84 0
v -5.76 -7.84 0
v -5.92 -8 0
v -6.08 -8 0
v -6.08 -7.84 0
v -5.92 -7.84 0
v -6.08 -8 0
v -6.24 -8 0
v -6.24 -7.84 0
v -6.08 -7.84 0
v -6.24 -8 0
v -6.4 -8 0
v -6.4 -7.84 0
v -6.24 -7.84 0
v -6.4 -8 0
v -6.56 -8 0
v -6.56 -7.84 0
v -6.4 -7.84 0
v -6.56 -8 0
v -6.72 -8 0
v -6.72 -7.84 0
v -6.56 -7.84 0
v -6.72 -8 0
v -6.88 -8 0
v -6.88 -7.84 0
v -6.72 -7.84 0
v -6.88 -8 0
v -7.04 -8 0
v -7.04 -7.84 0
v -6.88 -7.84 0
v -7.04 -8 0
v -7.2 -8 0
v -7.2 -7.84 0
v -7.04 -7.84 0
v -7.2 -8 0
v -7.36 -8 0
v -7.36 -7.84 0
v -7.2 -7.84 0
v -7.36 -8 0
v -7.52 -8 0
v -7.52 -7.84 0
v -7.36 -7.84 0
v -7.52 -8 0
v -7.68 -8 0
v -7.68 -7.84 0
v -7.52 -7.84 0
v -7.68 -8 0
v -7.84 -8 0
v -7.84 -7.84 0
v -7.68 -7.84 0
v -7.84 -8 0
v -8 -8 0
v -8 -7.84 0
v -7.84 -7.84 0
v -8 -8 0
v -8.16 -8 0
v -8.16 -7.84 0
v -8 -7.84 0
v -8.16 -8 0
v -8.32 -8 0
v -8.32 -7.84 0
v -8.16 -7.84 0
v -8.32 -8 0
v -8.48 -8 0
v -8.48 -7.84 0
v -8.32 -7.84 0
v -8.48 -8 0
v -8.639999 -8 0
v -8.639999 -7.84 0
v -8.48 -7.84 0
v -8.639999 -8 0
v -8.8 -8 0
v -8.8 -7.84 0
v -8.639999 -7.84 0
v -8.8 -8 0
v -8.96 -8 0
v -8.96 -7.84 0
v -8.8 -7.84 0
v -8.96 -8 0
v -9.12 -8 0
v -9.12 -7.84 0
v -8.96 -7.84 0
v -9.12 -8 0
v -9.28 -8 0
v -9.28 -7.84 0
v -9.12 -7.84 0
v -9.28 -8 0
v -9.44 -8 0
v -9.44 -7.84 0
v -9.28 -7.84 0
v -9.44 -8 0
v -9.599999 -8 0
v -9.599999 -7.84 0
v -9.44 -7.84 0
v -9.599999 -8 0
v -9.76 -8 0
v -9.76 -7.84 0
v -9.599999 -7.84 0
v -9.76 -8 0
v -9.92 -8 0
v -9.92 -7.84 0
v -9.76 -7.84 0
v -9.92 -8 0
v -10.08 -8 0
v -10.08 -7.84 0
v -9.92 -7.84 0
v -10.08 -8 0
v -10.24 -8 0
v -10.24 -7.84 0
v -10.08 -7.84 0
v -10.24 -8 0
v -10.4 -8 0
v -10.4 -7.84 0
v -10.24 -7.84 0
v -10.4 -8 0
v -10.56 -8 0
v -10.56 -7.84 0
v -10.4 -7.84 0
v -10.56 -8 0
v -10.72 -8 0
v -10.72 -7.84 0
v -10.56 -7.84 0

# Texture cooridinates (Count = 68)
vt 0.52 0.9130435
vt 0.56 0.9130435
vt 0.56 0.9565217
vt 0.52 0.9565217
vt 0.6 0.9130435
vt 0.6 0.9565217
vt 0.28 0.9130435
vt 0.32 0.9130435
vt 0.32 0.9565217
vt 0.28 0.9565217
vt 0.52 0.8695652
vt 0.56 0.8695652
vt 0.6 0.8695652
vt 0.64 0.7826087
vt 0.68 0.7826087
vt 0.68 0.8260869
vt 0.64 0.8260869
vt 0.64 0.7391304
vt 0.68 0.7391304
vt 0.68 0.3478261
vt 0.72 0.3478261
vt 0.72 0.3913043
vt 0.68 0.3913043
vt 0.4 0.8260869
vt 0.44 0.8260869
vt 0.44 0.8695652
vt 0.4 0.8695652
vt 0.32 0.8260869
vt 0.36 0.8260869
vt 0.36 0.8695652
vt 0.32 0.8695652
vt 0.36 0.9130435
vt 0.4 0.9130435
vt 0.4 0.9565217
vt 0.36 0.9565217
vt 0.44 0.9130435
vt 0.44 0.9565217
vt 0.8 0.7826087
vt 0.84 0.7826087
vt 0.84 0.8260869
vt 0.8 0.8260869
vt 0.76 0.3478261
vt 0.8 0.3478261
vt 0.8 0.3913043
vt 0.76 0.3913043
vt 0.8 0.7391304
vt 0.84 0.7391304
vt 0.6 0.3478261
vt 0.64 0.3478261
vt 0.64 0.3913043
vt 0.6 0.3913043
vt 0.44 0.5217391
vt 0.48 0.5217391
vt 0.48 0.5652174
vt 0.44 0.5652174
vt 0.84 0.2608696
vt 0.88 0.2608696
vt 0.88 0.3043478
vt 0.84 0.3043478
vt 0.88 0.9130435
vt 0.92 0.9130435
vt 0.92 0.9565217
vt 0.88 0.9565217
vt 0.96 0.9130435
vt 0.96 0.9565217
vt 0.88 0.8695652
vt 0.92 0.8695652
vt 0.96 0.8695652

# Normal
vn 0 0 -1

# Mesh description
g Level_1_mesh_0002

# Faces
f 1/1/1 2/2/1 3/3/1 4/4/1
f 5/2/1 6/5/1 7/6/1 8/3/1
f 9/7/1 10/8/1 11/9/1 12/10/1
f 13/7/1 14/8/1 15/9/1 16/10/1
f 17/7/1 18/8/1 19/9/1 20/10/1
f 21/11/1 22/12/1 23/2/1 24/1/1
f 25/12/1 26/13/1 27/5/1 28/2/1
f 29/14/1 30/15/1 31/16/1 32/17/1
f 33/18/1 34/19/1 35/15/1 36/14/1
f 37/14/1 38/15/1 39/16/1 40/17/1
f 41/18/1 42/19/1 43/15/1 44/14/1
f 45/14/1 46/15/1 47/16/1 48/17/1
f 49/18/1 50/19/1 51/15/1 52/14/1
f 53/7/1 54/8/1 55/9/1 56/10/1
f 57/7/1 58/8/1 59/9/1 60/10/1
f 61/7/1 62/8/1 63/9/1 64/10/1
f 65/7/1 66/8/1 67/9/1 68/10/1
f 69/7/1 70/8/1 71/9/1 72/10/1
f 73/7/1 74/8/1 75/9/1 76/10/1
f 77/20/1 78/21/1 79/22/1 80/23/1
f 81/20/1 82/21/1 83/22/1 84/23/1
f 85/20/1 86/21/1 87/22/1 88/23/1
f 89/20/1 90/21/1 91/22/1 92/23/1
f 93/20/1 94/21/1 95/22/1 96/23/1
f 97/20/1 98/21/1 99/22/1 100/23/1
f 101/20/1 102/21/1 103/22/1 104/23/1
f 105/20/1 106/21/1 107/22/1 108/23/1
f 109/20/1 110/21/1 111/22/1 112/23/1
f 113/20/1 114/21/1 115/22/1 116/23/1
f 117/20/1 118/21/1 119/22/1 120/23/1
f 121/20/1 122/21/1 123/22/1 124/23/1
f 125/20/1 126/21/1 127/22/1 128/23/1
f 129/20/1 130/21/1 131/22/1 132/23/1
f 133/20/1 134/21/1 135/22/1 136/23/1
f 137/20/1 138/21/1 139/22/1 140/23/1
f 141/20/1 142/21/1 143/22/1 144/23/1
f 145/24/1 146/25/1 147/26/1 148/27/1
f 149/28/1 150/29/1 151/30/1 152/31/1
f 153/32/1 154/33/1 155/34/1 156/35/1
f 157/33/1 158/36/1 159/37/1 160/34/1
f 161/38/1 162/39/1 163/40/1 164/41/1
f 165/20/1 166/21/1 167/22/1 168/23/1
f 169/20/1 170/21/1 171/22/1 172/23/1
f 173/20/1 174/21/1 175/22/1 176/23/1
f 177/20/1 178/21/1 179/22/1 180/23/1
f 181/20/1 182/21/1 183/22/1 184/23/1
f 185/20/1 186/21/1 187/22/1 188/23/1
f 189/20/1 190/21/1 191/22/1 192/23/1
f 193/20/1 194/21/1 195/22/1 196/23/1
f 197/20/1 198/21/1 199/22/1 200/23/1
f 201/20/1 202/21/1 203/22/1 204/23/1
f 205/20/1 206/21/1 207/22/1 208/23/1
f 209/42/1 210/43/1 211/44/1 212/45/1
f 213/24/1 214/25/1 215/26/1 216/27/1
f 217/38/1 218/39/1 219/40/1 220/41/1
f 221/46/1 222/47/1 223/39/1 224/38/1
f 225/38/1 226/39/1 227/40/1 228/41/1
f 229/46/1 230/47/1 231/39/1 232/38/1
f 233/48/1 234/49/1 235/50/1 236/51/1
f 237/20/1 238/21/1 239/22/1 240/23/1
f 241/20/1 242/21/1 243/22/1 244/23/1
f 245/20/1 246/21/1 247/22/1 248/23/1
f 249/20/1 250/21/1 251/22/1 252/23/1
f 253/20/1 254/21/1 255/22/1 256/23/1
f 257/42/1 258/43/1 259/44/1 260/45/1
f 261/52/1 262/53/1 263/54/1 264/55/1
f 265/52/1 266/53/1 267/54/1 268/55/1
f 269/52/1 270/53/1 271/54/1 272/55/1
f 273/52/1 274/53/1 275/54/1 276/55/1
f 277/52/1 278/53/1 279/54/1 280/55/1
f 281/48/1 282/49/1 283/50/1 284/51/1
f 285/20/1 286/21/1 287/22/1 288/23/1
f 289/46/1 290/47/1 291/39/1 292/38/1
f 293/56/1 294/57/1 295/58/1 296/59/1
f 297/48/1 298/49/1 299/50/1 300/51/1
f 301/20/1 302/21/1 303/22/1 304/23/1
f 305/20/1 306/21/1 307/22/1 308/23/1
f 309/20/1 310/21/1 311/22/1 312/23/1
f 313/20/1 314/21/1 315/22/1 316/23/1
f 317/20/1 318/21/1 319/22/1 320/23/1
f 321/20/1 322/21/1 323/22/1 324/23/1
f 325/20/1 326/21/1 327/22/1 328/23/1
f 329/20/1 330/21/1 331/22/1 332/23/1
f 333/20/1 334/21/1 335/22/1 336/23/1
f 337/20/1 338/21/1 339/22/1 340/23/1
f 341/20/1 342/21/1 343/22/1 344/23/1
f 345/20/1 346/21/1 347/22/1 348/23/1
f 349/56/1 350/57/1 351/58/1 352/59/1
f 353/56/1 354/57/1 355/58/1 356/59/1
f 357/48/1 358/49/1 359/50/1 360/51/1
f 361/20/1 362/21/1 363/22/1 364/23/1
f 365/20/1 366/21/1 367/22/1 368/23/1
f 369/20/1 370/21/1 371/22/1 372/23/1
f 373/60/1 374/61/1 375/62/1 376/63/1
f 377/61/1 378/64/1 379/65/1 380/62/1
f 381/66/1 382/67/1 383/61/1 384/60/1
f 385/67/1 386/68/1 387/64/1 388/61/1
f 389/60/1 390/61/1 391/62/1 392/63/1
f 393/61/1 394/64/1 395/65/1 396/62/1
f 397/56/1 398/57/1 399/58/1 400/59/1
f 401/66/1 402/67/1 403/61/1 404/60/1
f 405/67/1 406/68/1 407/64/1 408/61/1
f 409/20/1 410/21/1 411/22/1 412/23/1
f 413/20/1 414/21/1 415/22/1 416/23/1
f 417/20/1 418/21/1 419/22/1 420/23/1
f 421/20/1 422/21/1 423/22/1 424/23/1
f 425/20/1 426/21/1 427/22/1 428/23/1
f 429/20/1 430/21/1 431/22/1 432/23/1
f 433/20/1 434/21/1 435/22/1 436/23/1
f 437/20/1 438/21/1 439/22/1 440/23/1
f 441/20/1 442/21/1 443/22/1 444/23/1
f 445/20/1 446/21/1 447/22/1 448/23/1
f 449/42/1 450/43/1 451/44/1 452/45/1
f 453/56/1 454/57/1 455/58/1 456/59/1
f 457/56/1 458/57/1 459/58/1 460/59/1
f 461/56/1 462/57/1 463/58/1 464/59/1
f 465/56/1 466/57/1 467/58/1 468/59/1
f 469/56/1 470/57/1 471/58/1 472/59/1
f 473/56/1 474/57/1 475/58/1 476/59/1
f 477/56/1 478/57/1 479/58/1 480/59/1
f 481/56/1 482/57/1 483/58/1 484/59/1
f 485/56/1 486/57/1 487/58/1 488/59/1
f 489/56/1 490/57/1 491/58/1 492/59/1
f 493/48/1 494/49/1 495/50/1 496/51/1
f 497/20/1 498/21/1 499/22/1 500/23/1
f 501/20/1 502/21/1 503/22/1 504/23/1
f 505/20/1 506/21/1 507/22/1 508/23/1
f 509/20/1 510/21/1 511/22/1 512/23/1
f 513/20/1 514/21/1 515/22/1 516/23/1
f 517/20/1 518/21/1 519/22/1 520/23/1
f 521/20/1 522/21/1 523/22/1 524/23/1
f 525/20/1 526/21/1 527/22/1 528/23/1
f 529/20/1 530/21/1 531/22/1 532/23/1
f 533/20/1 534/21/1 535/22/1 536/23/1
f 537/20/1 538/21/1 539/22/1 540/23/1
f 541/20/1 542/21/1 543/22/1 544/23/1
f 545/20/1 546/21/1 547/22/1 548/23/1
f 549/20/1 550/21/1 551/22/1 552/23/1
f 553/20/1 554/21/1 555/22/1 556/23/1
f 557/20/1 558/21/1 559/22/1 560/23/1
f 561/20/1 562/21/1 563/22/1 564/23/1
f 565/20/1 566/21/1 567/22/1 568/23/1
f 569/20/1 570/21/1 571/22/1 572/23/1
f 573/20/1 574/21/1 575/22/1 576/23/1
f 577/20/1 578/21/1 579/22/1 580/23/1
f 581/20/1 582/21/1 583/22/1 584/23/1
f 585/20/1 586/21/1 587/22/1 588/23/1
f 589/20/1 590/21/1 591/22/1 592/23/1
f 593/20/1 594/21/1 595/22/1 596/23/1
f 597/20/1 598/21/1 599/22/1 600/23/1
f 601/20/1 602/21/1 603/22/1 604/23/1
f 605/20/1 606/21/1 607/22/1 608/23/1
f 609/20/1 610/21/1 611/22/1 612/23/1
f 613/42/1 614/43/1 615/44/1 616/45/1

