# Tiled2Unity generated file. Do not modify by hand.
# Wavefront file for 'Level_01_mesh_0002.obj'

# Vertices (Count = 104)
v -12.48 -10.08 0
v -12.64 -10.08 0
v -12.64 -9.92 0
v -12.48 -9.92 0
v -12.64 -10.08 0
v -12.8 -10.08 0
v -12.8 -9.92 0
v -12.64 -9.92 0
v -12.8 -10.08 0
v -12.96 -10.08 0
v -12.96 -9.92 0
v -12.8 -9.92 0
v -12.96 -10.08 0
v -13.12 -10.08 0
v -13.12 -9.92 0
v -12.96 -9.92 0
v -13.12 -10.08 0
v -13.28 -10.08 0
v -13.28 -9.92 0
v -13.12 -9.92 0
v -12.32 -10.24 0
v -12.48 -10.24 0
v -12.48 -10.08 0
v -12.32 -10.08 0
v -12.48 -10.24 0
v -12.64 -10.24 0
v -12.64 -10.08 0
v -12.48 -10.08 0
v -12.64 -10.24 0
v -12.8 -10.24 0
v -12.8 -10.08 0
v -12.64 -10.08 0
v -12.8 -10.24 0
v -12.96 -10.24 0
v -12.96 -10.08 0
v -12.8 -10.08 0
v -12.96 -10.24 0
v -13.12 -10.24 0
v -13.12 -10.08 0
v -12.96 -10.08 0
v -13.12 -10.24 0
v -13.28 -10.24 0
v -13.28 -10.08 0
v -13.12 -10.08 0
v -13.28 -10.24 0
v -13.44 -10.24 0
v -13.44 -10.08 0
v -13.28 -10.08 0
v -12.48 -10.4 0
v -12.64 -10.4 0
v -12.64 -10.24 0
v -12.48 -10.24 0
v -12.64 -10.4 0
v -12.8 -10.4 0
v -12.8 -10.24 0
v -12.64 -10.24 0
v -12.8 -10.4 0
v -12.96 -10.4 0
v -12.96 -10.24 0
v -12.8 -10.24 0
v -12.96 -10.4 0
v -13.12 -10.4 0
v -13.12 -10.24 0
v -12.96 -10.24 0
v -13.12 -10.4 0
v -13.28 -10.4 0
v -13.28 -10.24 0
v -13.12 -10.24 0
v -12.16 -10.56 0
v -12.32 -10.56 0
v -12.32 -10.4 0
v -12.16 -10.4 0
v -12.32 -10.56 0
v -12.48 -10.56 0
v -12.48 -10.4 0
v -12.32 -10.4 0
v -12.48 -10.56 0
v -12.64 -10.56 0
v -12.64 -10.4 0
v -12.48 -10.4 0
v -12.64 -10.56 0
v -12.8 -10.56 0
v -12.8 -10.4 0
v -12.64 -10.4 0
v -12.8 -10.56 0
v -12.96 -10.56 0
v -12.96 -10.4 0
v -12.8 -10.4 0
v -12.96 -10.56 0
v -13.12 -10.56 0
v -13.12 -10.4 0
v -12.96 -10.4 0
v -12.16 -10.72 0
v -12.32 -10.72 0
v -12.32 -10.56 0
v -12.16 -10.56 0
v -12.32 -10.72 0
v -12.48 -10.72 0
v -12.48 -10.56 0
v -12.32 -10.56 0
v -12.48 -10.72 0
v -12.64 -10.72 0
v -12.64 -10.56 0
v -12.48 -10.56 0

# Texture cooridinates (Count = 12)
vt 0.16 0.2173913
vt 0.2 0.2173913
vt 0.2 0.2608696
vt 0.16 0.2608696
vt 0.12 0.2608696
vt 0.12 0.3043478
vt 0.08 0.3043478
vt 0.08 0.2608696
vt 0.08 0.2173913
vt 0.12 0.2173913
vt 0.08 0.173913
vt 0.12 0.173913

# Normal
vn 0 0 -1

# Mesh description
g Level_01_mesh_0002

# Faces
f 1/1/1 2/2/1 3/3/1 4/4/1
f 5/5/1 6/6/1 7/7/1 8/8/1
f 9/5/1 10/6/1 11/7/1 12/8/1
f 13/5/1 14/6/1 15/7/1 16/8/1
f 17/9/1 18/10/1 19/5/1 20/8/1
f 21/11/1 22/12/1 23/10/1 24/9/1
f 25/11/1 26/12/1 27/10/1 28/9/1
f 29/11/1 30/12/1 31/10/1 32/9/1
f 33/11/1 34/12/1 35/10/1 36/9/1
f 37/11/1 38/12/1 39/10/1 40/9/1
f 41/11/1 42/12/1 43/10/1 44/9/1
f 45/11/1 46/12/1 47/10/1 48/9/1
f 49/11/1 50/12/1 51/10/1 52/9/1
f 53/11/1 54/12/1 55/10/1 56/9/1
f 57/11/1 58/12/1 59/10/1 60/9/1
f 61/11/1 62/12/1 63/10/1 64/9/1
f 65/11/1 66/12/1 67/10/1 68/9/1
f 69/11/1 70/12/1 71/10/1 72/9/1
f 73/11/1 74/12/1 75/10/1 76/9/1
f 77/11/1 78/12/1 79/10/1 80/9/1
f 81/11/1 82/12/1 83/10/1 84/9/1
f 85/11/1 86/12/1 87/10/1 88/9/1
f 89/11/1 90/12/1 91/10/1 92/9/1
f 93/11/1 94/12/1 95/10/1 96/9/1
f 97/11/1 98/12/1 99/10/1 100/9/1
f 101/11/1 102/12/1 103/10/1 104/9/1

