# Tiled2Unity generated file. Do not modify by hand.
# Wavefront file for 'Level_01_mesh_0004.obj'

# Vertices (Count = 56)
v -11.52 -8.8 0
v -11.68 -8.8 0
v -11.68 -8.639999 0
v -11.52 -8.639999 0
v -11.52 -8.96 0
v -11.68 -8.96 0
v -11.68 -8.8 0
v -11.52 -8.8 0
v -11.52 -9.12 0
v -11.68 -9.12 0
v -11.68 -8.96 0
v -11.52 -8.96 0
v -11.52 -9.28 0
v -11.68 -9.28 0
v -11.68 -9.12 0
v -11.52 -9.12 0
v -11.52 -9.44 0
v -11.68 -9.44 0
v -11.68 -9.28 0
v -11.52 -9.28 0
v -11.52 -9.599999 0
v -11.68 -9.599999 0
v -11.68 -9.44 0
v -11.52 -9.44 0
v -11.52 -9.76 0
v -11.68 -9.76 0
v -11.68 -9.599999 0
v -11.52 -9.599999 0
v -11.52 -9.92 0
v -11.68 -9.92 0
v -11.68 -9.76 0
v -11.52 -9.76 0
v -11.52 -10.08 0
v -11.68 -10.08 0
v -11.68 -9.92 0
v -11.52 -9.92 0
v -11.52 -10.24 0
v -11.68 -10.24 0
v -11.68 -10.08 0
v -11.52 -10.08 0
v -11.52 -10.4 0
v -11.68 -10.4 0
v -11.68 -10.24 0
v -11.52 -10.24 0
v -11.52 -10.56 0
v -11.68 -10.56 0
v -11.68 -10.4 0
v -11.52 -10.4 0
v -11.52 -10.72 0
v -11.68 -10.72 0
v -11.68 -10.56 0
v -11.52 -10.56 0
v -11.52 -10.88 0
v -11.68 -10.88 0
v -11.68 -10.72 0
v -11.52 -10.72 0

# Texture cooridinates (Count = 4)
vt 0.28 0.5217391
vt 0.32 0.5217391
vt 0.32 0.5652174
vt 0.28 0.5652174

# Normal
vn 0 0 -1

# Mesh description
g Level_01_mesh_0004

# Faces
f 1/1/1 2/2/1 3/3/1 4/4/1
f 5/1/1 6/2/1 7/3/1 8/4/1
f 9/1/1 10/2/1 11/3/1 12/4/1
f 13/1/1 14/2/1 15/3/1 16/4/1
f 17/1/1 18/2/1 19/3/1 20/4/1
f 21/1/1 22/2/1 23/3/1 24/4/1
f 25/1/1 26/2/1 27/3/1 28/4/1
f 29/1/1 30/2/1 31/3/1 32/4/1
f 33/1/1 34/2/1 35/3/1 36/4/1
f 37/1/1 38/2/1 39/3/1 40/4/1
f 41/1/1 42/2/1 43/3/1 44/4/1
f 45/1/1 46/2/1 47/3/1 48/4/1
f 49/1/1 50/2/1 51/3/1 52/4/1
f 53/1/1 54/2/1 55/3/1 56/4/1

